<svg preserveAspectRatio="none" width="100%" height="100%" overflow="visible" style="display: block;" viewBox="0 0 52 52" fill="none" xmlns="http://www.w3.org/2000/svg">
<g id="Vector">
<path d="M45.0675 0.00759751C45.6724 -0.0486454 46.0281 0.21707 46.5346 0.484447L47.9858 1.24158L49.9242 2.24097C50.3223 2.44414 50.7834 2.65871 51.1522 2.90636C51.6514 3.24171 51.8772 3.96412 51.8889 4.53204C51.9044 5.26235 51.8995 5.99022 51.9031 6.71907C51.9175 8.0216 51.924 9.32425 51.9229 10.6269L51.9791 31.3985L51.9933 34.16C51.9982 34.772 52.0066 35.3765 51.9911 35.9893C51.9672 37.2163 51.3272 38.4772 50.3185 39.188C50.0636 39.3677 49.6804 39.5407 49.3962 39.6839C48.8168 39.9746 48.2355 40.2613 47.6518 40.5436L42.1907 43.2418L26.8293 50.8594C26.1248 51.2086 25.3842 51.5986 24.673 51.9243C23.8214 52.1906 23.2734 51.7001 22.5574 51.2933L20.6548 50.2214L19.1532 49.382C18.9302 49.2578 18.5217 49.0431 18.3303 48.8983C18.0047 48.6517 17.8373 48.1068 17.8264 47.7089C17.811 47.1478 17.8131 46.5661 17.809 45.9974L17.7911 42.701L17.7627 33.7949C17.741 31.2217 17.7329 28.6486 17.7384 26.0758L17.7276 23.8046C17.7236 23.0078 17.6657 21.9313 17.8835 21.1896C17.9734 20.8825 18.105 20.5891 18.2748 20.3175C18.7863 19.4963 19.5527 18.4525 20.1119 17.6335L26.0124 8.99066C26.1356 8.81071 26.85 7.72196 26.9314 7.67429C27.573 7.29869 29.0587 6.71547 29.7194 6.42749L36.8566 3.34116L41.4051 1.38996C42.3334 0.989545 43.2717 0.58515 44.2055 0.196165C44.5047 0.0715008 44.746 0.0253084 45.0675 0.00759751Z" fill="#3B82F6"/>
<path d="M50.127 2.9564C50.3215 2.93775 50.518 2.9632 50.7014 3.03084C51.3055 3.25884 51.5487 3.96154 51.5547 4.55653C51.5621 5.27439 51.5569 5.99322 51.558 6.71132L51.5729 10.5455L51.6371 31.5419L51.6526 34.4919C51.6547 34.9907 51.6697 35.567 51.6501 36.0613C51.6362 36.4497 51.5566 36.8327 51.4145 37.1946C51.1012 38.0037 50.5313 38.7451 49.747 39.133C49.5196 39.2454 49.2943 39.3631 49.0671 39.4763L47.2103 40.3931L26.6601 50.5806C25.9972 50.9086 25.2457 51.3065 24.5787 51.6054C24.487 51.6341 24.3598 51.6638 24.2626 51.6668C23.0605 51.7012 23.2186 50.2127 23.2108 49.3933L23.0935 23.8016C24.307 23.3447 25.6898 22.7023 26.9012 22.1897L28.8756 21.3486C29.1859 21.2148 29.6616 21.0239 29.9478 20.8689C30.2375 20.7137 30.5019 20.5156 30.7321 20.2815C31.2928 19.714 31.685 19.0031 31.8652 18.2274C32.034 17.5257 31.9812 16.1996 31.9911 15.4292C32.0162 13.8633 32.0308 12.2971 32.0348 10.731L44.2881 5.36988L47.2975 4.04848C47.9481 3.76326 49.5142 3.02599 50.127 2.9564Z" fill="#DBEAFE"/>
<path d="M18.2615 21.0891C18.5096 21.1998 19.2192 21.6709 19.4909 21.8349C20.5631 22.4823 21.6853 23.1239 22.7356 23.8008L22.8483 47.7235L22.8546 49.6012C22.8566 50.1997 22.8529 50.5194 22.9619 51.1122L22.9315 51.1309L22.8649 51.0981C21.9902 50.5914 21.111 50.0928 20.2274 49.6015C19.7109 49.3149 19.193 49.035 18.6879 48.7258C18.2943 48.4849 18.1804 48.0884 18.1625 47.648C18.1445 47.2057 18.1522 46.7566 18.1508 46.3132L18.1155 34.994L18.0766 26.5213L18.0679 23.513C18.0661 22.6221 18.0044 21.9596 18.2615 21.0891Z" fill="#DBEAFE"/>
<path d="M27.1015 7.99604C27.4334 8.15761 28.1246 8.59598 28.4738 8.80365C29.5178 9.43161 30.5651 10.0542 31.6155 10.6714L26.4412 18.2167C25.245 19.9435 24.0633 21.6802 22.8961 23.4266L22.8574 23.436C22.7422 23.396 21.7749 22.799 21.6105 22.6975C20.5536 22.0448 19.4631 21.4149 18.4189 20.7458C18.7334 20.2178 19.2316 19.5226 19.5846 19.0086L21.4166 16.3328L27.1015 7.99604Z" fill="#DBEAFE"/>
<path d="M44.9164 0.357324C45.0982 0.340095 45.4498 0.319788 45.6142 0.393742C46.058 0.593117 46.5455 0.861856 46.9771 1.08665L49.9527 2.62679C49.3084 2.74389 48.3546 3.20118 47.7268 3.47393L32.3551 10.2126C32.1938 10.2842 32.0316 10.3536 31.8684 10.4207L27.4365 7.76664C28.5796 7.29424 29.7369 6.77295 30.8767 6.28418L40.1033 2.31063L42.7046 1.19683C43.2941 0.94376 44.3305 0.446192 44.9164 0.357324Z" fill="#DBEAFE"/>
<path d="M31.671 11.2226C31.6989 11.3433 31.6737 12.3555 31.671 12.5307C31.6653 13.4677 31.6536 14.4046 31.6357 15.3415C31.6264 15.9697 31.662 17.0071 31.608 17.5966C31.5715 17.9915 31.4752 18.3786 31.3223 18.7448C30.5853 20.5521 29.0281 20.9048 27.3781 21.6035L23.4904 23.259C23.4759 23.1334 24.6107 21.5253 24.7738 21.287L27.0112 18.0283L30.2039 13.3668C30.6869 12.648 31.1759 11.9333 31.671 11.2226Z" fill="#DBEAFE"/>
<path d="M11.8571 20.8458C11.6421 20.8182 11.3185 20.8926 11.1343 21.0034C9.92617 21.7291 8.69021 22.4229 7.49403 23.1674C6.95937 23.5001 6.37739 23.9577 5.86157 24.3284L2.90085 26.4591L1.3402 27.5746C0.624456 28.0834 0.0393443 28.3674 0.00291875 29.3481C-0.023249 30.054 0.125594 30.6513 0.487547 31.2619C1.04042 32.1949 1.61025 33.1156 2.17443 34.0404L5.15902 38.9474L6.6822 41.4442C7.26668 42.4143 7.85912 43.6867 9.04609 44.0334C9.82149 44.2598 10.2331 43.8591 10.8502 43.508L13.8294 41.7776C14.314 41.498 14.596 41.3078 14.7528 40.7263C15.0806 39.5095 14.2145 38.4631 13.6221 37.4479C14.0504 37.6022 14.6789 37.9114 15.1051 38.1045L17.8496 39.3518C19.4147 40.0394 20.9781 40.8079 22.546 41.4978C23.1951 41.7759 23.8219 42.1232 24.4939 42.3438C25.2286 42.5848 25.7287 42.181 26.3164 41.8288L27.8498 40.9019L28.9676 40.2448C29.5958 39.877 30.1004 39.6411 30.2355 38.8351C30.4331 37.7375 29.8368 36.5152 28.9242 35.8978C28.4681 35.5892 27.7327 35.3261 27.203 35.1049L24.4922 33.976L11.4766 28.5328C11.0591 28.3579 10.3911 28.1005 10.0019 27.9007C10.3013 27.6321 10.7353 27.31 11.0598 27.0511L12.6924 25.7404C12.997 25.4981 13.3077 25.2632 13.6118 25.0182C14.0008 24.7204 14.17 24.355 14.2091 23.8697C14.3171 22.5291 13.2507 20.964 11.8571 20.8458Z" fill="#3B82F6"/>
<path d="M8.19346 23.3461C7.58553 23.3117 7.30061 23.6812 6.83315 24.0067C5.95308 24.6247 5.07928 25.2512 4.21177 25.8862L1.68647 27.6995C1.38167 27.9197 0.806394 28.2669 0.581142 28.544C0.0960957 29.1403 0.277178 30.2671 0.631594 30.8966C1.01323 31.5741 1.4451 32.2621 1.85415 32.9344L4.13054 36.6769L6.56059 40.6596L7.36928 41.9935C7.47374 42.1663 7.58009 42.3387 7.68204 42.5132C8.04483 43.1345 8.85498 43.9118 9.64357 43.7992C9.89101 43.7662 10.114 43.6338 10.2605 43.4324C10.5955 42.9767 10.5617 42.2995 10.3911 41.789C10.2046 41.231 9.96408 40.8931 9.66493 40.4007L9.0346 39.351L6.42096 35.0307C6.27065 34.7829 5.70563 33.9165 5.67318 33.7007C5.71756 33.64 5.72385 33.6329 5.79146 33.6007C5.92963 33.5847 7.80806 34.4654 8.08439 34.5897L21.7686 40.8189L23.4393 41.5848C23.7912 41.7454 24.3808 42.0554 24.7318 42.1025C26.0274 42.2441 26.2205 40.8923 25.9223 39.9545C25.4426 38.4463 24.2832 38.1664 22.9697 37.5968L7.87107 31.0221C7.2556 30.7547 6.63846 30.4893 6.02383 30.2202C5.96312 30.1937 5.82077 30.1283 5.78016 30.0796C5.75629 30.0565 5.76592 29.9786 5.78581 29.9548C6.02802 29.6637 6.55682 29.3312 6.85744 29.1069L8.98917 27.5192C9.28287 27.302 9.67644 27.0402 9.92535 26.7828C10.0432 26.625 10.1313 26.36 10.1588 26.1747C10.3348 24.9853 9.41999 23.5373 8.19346 23.3461Z" fill="#DBEAFE"/>
<path d="M9.75654 28.1323C9.63847 28.1376 6.62268 29.8073 6.2892 29.9908L19.1813 35.5977L22.9262 37.2319L24.0651 37.7259C24.3395 37.844 24.6332 37.9579 24.891 38.1071C25.2009 38.2866 25.4677 38.567 25.6935 38.8414C25.7343 38.8909 25.7688 38.944 25.8231 38.9788L25.8874 38.9524C26.2337 38.7163 26.8388 38.3785 27.2135 38.1589C27.9571 37.7253 28.698 37.2873 29.4363 36.845C29.2222 36.5565 28.8881 36.1836 28.5622 36.0217C27.9667 35.7261 27.3032 35.4668 26.6871 35.2087L9.75654 28.1323Z" fill="#DBEAFE"/>
<path d="M6.28324 34.1198L6.27277 34.1287C6.26649 34.2128 6.64226 34.7738 6.71155 34.89C7.93704 36.9403 9.20628 38.9678 10.4196 41.025C11.1689 40.5659 11.9346 40.1416 12.695 39.7014C13.1631 39.4172 13.6611 39.166 14.1162 38.8695C13.9577 38.6097 13.2116 37.2972 13.0372 37.2052C12.5962 36.9727 11.7379 36.6007 11.2543 36.3819L8.6017 35.1733C7.84723 34.8335 7.02431 34.476 6.28324 34.1198Z" fill="#DBEAFE"/>
<path d="M11.867 21.1357C11.3556 21.1196 10.956 21.4455 10.5274 21.6984L9.18282 22.4938C8.89707 22.6644 8.56883 22.8716 8.27679 23.0241C8.30819 23.0301 8.33918 23.0367 8.37016 23.044C9.65238 23.3445 10.6537 24.8403 10.4807 26.1391C10.4678 26.2368 10.441 26.3433 10.4184 26.4398C10.4031 26.4827 10.3962 26.4928 10.4022 26.5388C10.5199 26.5499 13.1616 24.9373 13.5353 24.699C13.7381 24.5697 13.8826 24.1655 13.9089 23.9224C14.0366 22.7464 13.0921 21.2847 11.867 21.1357Z" fill="#DBEAFE"/>
<path d="M29.6136 37.1055C28.4105 37.7706 27.179 38.5802 25.967 39.2588C25.9876 39.2932 26.0072 39.3281 26.026 39.3635C26.3792 40.0167 26.455 40.7837 26.2364 41.493L26.2615 41.5109C26.2792 41.5028 26.2966 41.4944 26.3139 41.4857C26.4306 41.4271 26.6491 41.2847 26.7666 41.2134L27.6308 40.6956L28.8282 39.9834C29.2824 39.7125 29.7291 39.5319 29.8865 38.9835C30.0754 38.3253 29.9213 37.6986 29.6136 37.1055Z" fill="#DBEAFE"/>
<path d="M14.2671 39.1519C13.0418 39.8748 11.7763 40.5672 10.5605 41.2967C10.8286 41.978 10.9377 42.4859 10.7409 43.2012C10.7466 43.2081 10.7631 43.2139 10.7728 43.2183C11.7412 42.6875 12.6746 42.071 13.647 41.5437C13.7827 41.4703 13.9531 41.3696 14.0701 41.2687C14.7134 40.7149 14.5633 39.8373 14.2671 39.1519Z" fill="#DBEAFE"/>
<path d="M11.4644 26.2943C10.8996 26.6897 10.0989 27.0338 9.58643 27.4727C9.33543 27.6876 7.90311 28.6562 7.81414 28.7985C7.88825 28.7708 8.38313 28.5025 8.48446 28.4429C8.80098 28.2569 9.3392 28.0099 9.62328 27.8089C10.2528 27.3638 10.871 26.8014 11.4935 26.3425L11.4644 26.2943Z" fill="#DBEAFE"/>
<path d="M11.4935 26.3425C11.6066 26.2596 11.6686 26.2057 11.7708 26.113C11.6447 26.1778 11.5821 26.2165 11.4644 26.2943L11.4935 26.3425Z" fill="var(--fill-0, #3B82F6)"/>
</g>
</svg>
