<svg width="78" height="65" viewBox="0 0 78 65" fill="none" xmlns="http://www.w3.org/2000/svg" style="display:block">
  <defs>
    <clipPath id="extract-clip">
      <rect x="0.732" y="0.732" width="55.639" height="51.247"/>
    </clipPath>
  </defs>
  <rect x="0" y="0" width="57.103" height="52.711" fill="#ffffff"/>
  <g clip-path="url(#extract-clip)">
    <rect x="0.732" y="0" width="55.639" height="13.91" fill="#F5F3FF"/>
    <circle cx="6.588" cy="6.586" r="2.196" fill="#EDE9FE"/>
    <circle cx="13.909" cy="6.586" r="2.196" fill="#EDE9FE"/>
    <circle cx="21.230" cy="6.586" r="2.196" fill="#EDE9FE"/>
  </g>
  <rect x="0.366" y="0.366" width="56.371" height="51.979" fill="none" stroke="#7C3AED" stroke-width="0.732"/>
  <rect x="3.66" y="21.23" width="21.963" height="5.125" fill="#7C3AED"/>
  <rect x="3.66" y="30.748" width="43.194" height="5.125" fill="#F5F3FF"/>
  <rect x="3.66" y="38.801" width="43.194" height="5.125" fill="#F5F3FF"/>
  <rect x="37.07" y="24" width="40.424" height="40.424" fill="#7C3AED"/>
  <svg x="48.092" y="35.021" width="18.3809" height="18.3819" viewBox="0 0 18.3809 18.3819" overflow="visible">
    <path d="M10.873 4.97876L13.3995 7.50529M3.29339 4.13659V7.50529M15.0838 10.874V14.2427M7.50426 0.767892V2.45224M4.97774 5.82094H1.60904M16.7682 12.5583H13.3995M8.34643 1.61007H6.66208M17.3072 2.1491L16.2292 1.07111C16.1345 0.975372 16.0217 0.899368 15.8973 0.847498C15.773 0.795628 15.6397 0.76892 15.505 0.76892C15.3702 0.76892 15.2369 0.795628 15.1126 0.847498C14.9882 0.899368 14.8754 0.975372 14.7807 1.07111L1.07008 14.7817C0.974344 14.8765 0.89834 14.9893 0.84647 15.1136C0.7946 15.2379 0.767892 15.3713 0.767892 15.506C0.767892 15.6407 0.7946 15.7741 0.84647 15.8984C0.89834 16.0227 0.974344 16.1355 1.07008 16.2303L2.14807 17.3082C2.24224 17.405 2.35485 17.4819 2.47925 17.5344C2.60365 17.587 2.73731 17.614 2.87234 17.614C3.00737 17.614 3.14103 17.587 3.26543 17.5344C3.38982 17.4819 3.50244 17.405 3.59661 17.3082L17.3072 3.59764C17.404 3.50346 17.4809 3.39085 17.5334 3.26646C17.5859 3.14206 17.613 3.0084 17.613 2.87337C17.613 2.73834 17.5859 2.60467 17.5334 2.48028C17.4809 2.35588 17.404 2.24327 17.3072 2.1491Z" stroke="white" stroke-width="1.53578" stroke-linecap="round" stroke-linejoin="round" fill="none"/>
  </svg>
</svg>
