<svg preserveAspectRatio="none" width="100%" height="100%" overflow="visible" style="display: block;" viewBox="0 0 14.8333 13.5" fill="none" xmlns="http://www.w3.org/2000/svg">
<path id="Vector" d="M10.0833 12.75V2.08333C10.0833 1.72971 9.94286 1.39057 9.69281 1.14052C9.44276 0.890476 9.10362 0.75 8.75 0.75H6.08333C5.72971 0.75 5.39057 0.890476 5.14052 1.14052C4.89048 1.39057 4.75 1.72971 4.75 2.08333V12.75M2.08333 3.41667H12.75C13.4864 3.41667 14.0833 4.01362 14.0833 4.75V11.4167C14.0833 12.153 13.4864 12.75 12.75 12.75H2.08333C1.34695 12.75 0.75 12.153 0.75 11.4167V4.75C0.75 4.01362 1.34695 3.41667 2.08333 3.41667Z" stroke="var(--stroke-0, #737373)" stroke-width="1.5" stroke-linecap="round" stroke-linejoin="round"/>
</svg>
