<svg preserveAspectRatio="none" width="100%" height="100%" overflow="visible" style="display: block;" viewBox="0 0 13.3307 14.6633" fill="none" xmlns="http://www.w3.org/2000/svg">
<path id="Vector" d="M8.99898 13.9983H11.3323C11.6859 13.9983 12.0251 13.8579 12.2751 13.6078C12.5252 13.3578 12.6657 13.0186 12.6657 12.665V3.99833L9.33232 0.665H3.33232C2.9787 0.665 2.63956 0.805476 2.38951 1.05552C2.13946 1.30557 1.99898 1.64471 1.99898 1.99833V4.665M8.66565 0.665V3.33167C8.66565 3.68529 8.80613 4.02443 9.05618 4.27448C9.30622 4.52452 9.64536 4.665 9.99898 4.665H12.6657M3.99898 10.665V13.9983M3.99898 10.665L7.13235 8.7983M3.99898 10.665L0.865684 8.7983M1.33237 8.06502C1.12692 8.18361 0.956823 8.35487 0.839633 8.56112C0.722443 8.76737 0.662402 9.00116 0.665704 9.23836V11.3984C0.657984 11.6358 0.713862 11.8711 0.827555 12.0797C0.941248 12.2883 1.10863 12.4628 1.31237 12.585L3.33237 13.7984C3.53683 13.9201 3.77015 13.985 4.00813 13.9862C4.2461 13.9873 4.48006 13.9248 4.6857 13.805L6.6657 12.5984C6.87116 12.4798 7.04125 12.3085 7.15844 12.1023C7.27563 11.896 7.33567 11.6622 7.33237 11.425V9.26502C7.34009 9.02755 7.28421 8.79232 7.17052 8.58369C7.05683 8.37506 6.88945 8.2006 6.6857 8.07836L4.6657 6.86502C4.46125 6.74324 4.22792 6.67839 3.98995 6.67722C3.75197 6.67605 3.51802 6.73859 3.31237 6.85836L1.33237 8.06502Z" stroke="var(--stroke-0, #171717)" stroke-width="1.33" stroke-linecap="round" stroke-linejoin="round"/>
</svg>
