<svg preserveAspectRatio="none" width="100%" height="100%" overflow="visible" style="display: block;" viewBox="0 0 14.8333 10.8333" fill="none" xmlns="http://www.w3.org/2000/svg">
<path id="Vector" d="M3.41667 4.75H6.08333M4.75 3.41667V6.08333M9.41667 5.41667H9.42333M11.4167 4.08333H11.4233M10.9633 0.75H3.87C3.21019 0.750154 2.57386 0.994917 2.08402 1.43698C1.59419 1.87903 1.28563 2.48699 1.218 3.14333C1.214 3.178 1.21133 3.21067 1.20667 3.24467C1.15267 3.694 0.75 7.054 0.75 8.08333C0.75 8.61377 0.960714 9.12247 1.33579 9.49755C1.71086 9.87262 2.21957 10.0833 2.75 10.0833C3.41667 10.0833 3.75 9.75 4.08333 9.41667L5.026 8.474C5.27599 8.22393 5.61507 8.08341 5.96867 8.08333H8.86467C9.21826 8.08341 9.55734 8.22393 9.80733 8.474L10.75 9.41667C11.0833 9.75 11.4167 10.0833 12.0833 10.0833C12.6138 10.0833 13.1225 9.87262 13.4975 9.49755C13.8726 9.12247 14.0833 8.61377 14.0833 8.08333C14.0833 7.05333 13.6807 3.694 13.6267 3.24467C13.622 3.21133 13.6193 3.178 13.6153 3.144C13.5479 2.48754 13.2394 1.87942 12.7495 1.43722C12.2597 0.995027 11.6232 0.750171 10.9633 0.75Z" stroke="var(--stroke-0, #2563EB)" stroke-width="1.5" stroke-linecap="round" stroke-linejoin="round"/>
</svg>
