<svg preserveAspectRatio="none" width="100%" height="100%" overflow="visible" style="display: block;" viewBox="0 0 13.5 13.5" fill="none" xmlns="http://www.w3.org/2000/svg">
<path id="Vector" d="M10.75 8.75C9.64543 8.75 8.75 9.64543 8.75 10.75C8.75 11.8546 9.64543 12.75 10.75 12.75C11.8546 12.75 12.75 11.8546 12.75 10.75C12.75 9.64543 11.8546 8.75 10.75 8.75ZM10.75 8.75V4.08333C10.75 3.72971 10.6095 3.39057 10.3595 3.14052C10.1094 2.89048 9.77029 2.75 9.41667 2.75H7.41667M2.75 4.75C3.85457 4.75 4.75 3.85457 4.75 2.75C4.75 1.64543 3.85457 0.75 2.75 0.75C1.64543 0.75 0.75 1.64543 0.75 2.75C0.75 3.85457 1.64543 4.75 2.75 4.75ZM2.75 4.75V12.75" stroke="var(--stroke-0, #737373)" stroke-width="1.5" stroke-linecap="round" stroke-linejoin="round"/>
</svg>
