<svg preserveAspectRatio="none" width="100%" height="100%" overflow="visible" style="display: block;" viewBox="0 0 13.5 14.8333" fill="none" xmlns="http://www.w3.org/2000/svg">
<path id="Vector" d="M3.41667 6.75V4.08333C3.41667 3.19928 3.76786 2.35143 4.39298 1.72631C5.0181 1.10119 5.86595 0.75 6.75 0.75C7.63406 0.75 8.4819 1.10119 9.10702 1.72631C9.73214 2.35143 10.0833 3.19928 10.0833 4.08333V6.75M2.08333 6.75H11.4167C12.153 6.75 12.75 7.34695 12.75 8.08333V12.75C12.75 13.4864 12.153 14.0833 11.4167 14.0833H2.08333C1.34695 14.0833 0.75 13.4864 0.75 12.75V8.08333C0.75 7.34695 1.34695 6.75 2.08333 6.75Z" stroke="var(--stroke-0, #737373)" stroke-width="1.5" stroke-linecap="round" stroke-linejoin="round"/>
</svg>
