<svg width="78" height="65" viewBox="0 0 78 65" fill="none" xmlns="http://www.w3.org/2000/svg" style="display:block">
  <defs>
    <clipPath id="parse-clip">
      <rect x="0.732" y="0.732" width="55.639" height="51.247"/>
    </clipPath>
  </defs>
  <rect x="0" y="0" width="57.103" height="52.711" fill="#ffffff"/>
  <g clip-path="url(#parse-clip)">
    <rect x="0.732" y="0" width="55.639" height="13.91" fill="#FDF2F8"/>
    <circle cx="6.588" cy="6.586" r="2.196" fill="#FCE7F3"/>
    <circle cx="13.909" cy="6.586" r="2.196" fill="#FCE7F3"/>
    <circle cx="21.230" cy="6.586" r="2.196" fill="#FCE7F3"/>
  </g>
  <rect x="0.366" y="0.366" width="56.371" height="51.979" fill="none" stroke="#DB2777" stroke-width="0.732"/>
  <rect x="3.66" y="21.23" width="21.963" height="5.125" fill="#DB2777"/>
  <rect x="3.66" y="30.748" width="43.194" height="5.125" fill="#FDF2F8"/>
  <rect x="3.66" y="38.801" width="43.194" height="5.125" fill="#FDF2F8"/>
  <rect x="37.07" y="24" width="40.424" height="40.424" fill="#DB2777"/>
  <svg x="48.935" y="35.865" width="16.6949" height="16.6949" viewBox="0 0 16.6949 16.6949" overflow="visible">
    <path d="M4.97876 7.50529L6.66311 9.18964L10.0318 5.82094M15.927 15.927L12.3056 12.3056M14.2427 7.50529C14.2427 11.2262 11.2262 14.2427 7.50529 14.2427C3.78433 14.2427 0.767892 11.2262 0.767892 7.50529C0.767892 3.78433 3.78433 0.767892 7.50529 0.767892C11.2262 0.767892 14.2427 3.78433 14.2427 7.50529Z" stroke="white" stroke-width="1.53578" stroke-linecap="round" stroke-linejoin="round" fill="none"/>
  </svg>
</svg>
