<svg preserveAspectRatio="none" width="100%" height="100%" overflow="visible" style="display: block;" viewBox="0 0 43 52" fill="none" xmlns="http://www.w3.org/2000/svg">
<g id="Vector">
<path d="M33.0944 0.0177456C32.972 0.00161962 32.7718 0.00640021 32.6645 0.000833276C32.3927 -0.0132656 31.8053 0.155104 31.5712 0.236551C31.0716 0.410396 27.7217 2.20086 27.4828 2.45751C27.4445 3.29558 27.4683 4.14554 27.456 4.9849C27.4512 5.31281 27.4575 5.66107 27.4849 5.98765C27.8013 6.19619 28.2482 6.43536 28.5887 6.6302L30.4971 7.72973C30.8362 7.92618 31.399 8.23293 31.6853 8.46723C31.6222 10.9644 31.5219 13.6225 31.8776 16.0912C32.0172 17.06 32.4581 18.3377 33.2966 18.8903C33.6823 19.1445 34.1525 19.403 34.5118 19.6623L34.5456 19.6869C33.9179 20.4167 33.3471 21.1271 32.9006 21.9836C31.2458 25.1573 31.4734 29.1954 31.5126 32.6681C31.5235 33.6272 31.5284 34.9445 31.0117 35.7841C30.3804 36.8085 29.13 37.1852 28.1163 37.7361C27.7551 37.9325 27.4478 37.9452 27.4427 38.4293C27.432 39.4431 27.4343 40.4633 27.4454 41.4763C27.4473 41.6578 28.5201 42.2366 28.7255 42.3579C29.4169 42.7633 30.1049 43.1742 30.7892 43.5911C31.1217 43.7744 31.6382 44.1321 31.9552 44.2582C32.3888 44.0903 32.9194 43.7517 33.3577 43.5397C34.6642 42.9079 35.8481 42.4039 36.9302 41.413C39.3596 39.189 39.5121 36.8421 39.5203 33.7676C39.5246 32.1365 39.4901 30.4132 39.5298 28.7909C39.5835 26.6026 39.812 24.5936 41.5394 23.0187C41.7636 22.815 42.0022 22.6271 42.2535 22.4566C42.4632 22.3152 42.7584 22.1389 42.9375 21.9726L42.9642 21.9474C43.0266 20.9286 42.9947 19.5476 42.964 18.5221C42.8002 18.4031 42.3846 18.1745 42.2005 18.0676L40.6288 17.1534C40.3353 16.9819 39.9566 16.7745 39.6861 16.5787C39.6241 16.2611 39.5761 15.5453 39.5608 15.2109C39.4384 12.5835 39.5984 9.94949 39.4812 7.3212C39.4218 5.99028 39.3481 3.57855 38.099 2.77047C37.0441 2.10783 35.9458 1.51147 34.8818 0.862376C34.2891 0.500798 33.7983 0.139189 33.0944 0.0177456Z" fill="#3B82F6"/>
<path d="M37.2379 2.82832C36.9137 2.79262 36.5856 2.81713 36.2707 2.90066C35.2333 3.17178 33.0652 4.49758 32.0955 5.07028L32.1001 8.01298C32.5386 7.78979 32.9574 7.50654 33.3859 7.26229C33.9033 6.96737 34.5495 6.58676 35.1729 6.75776C35.5233 6.85388 35.7683 7.12693 35.8863 7.45623C36.2664 8.51664 36.1536 10.5372 36.1145 11.6867C36.0414 13.8371 35.9076 18.4053 36.9992 20.2529C37.4022 20.9349 37.967 21.3006 38.7514 21.4549C38.9795 21.4998 39.2301 21.5024 39.4508 21.5729C39.5295 21.5981 39.5446 21.6325 39.5845 21.7009C39.5814 21.7954 39.5599 21.8534 39.491 21.9256C38.8507 22.5958 38.3563 23.2066 37.8506 23.9866C35.9762 26.8776 36.0835 30.5545 36.0982 33.8568C36.1042 35.2005 36.2351 36.5852 35.86 37.8947C35.3944 39.5139 33.7841 40.0001 32.437 40.706L32.128 40.8805C32.1211 41.8366 32.1237 42.793 32.1359 43.749C32.5455 43.5557 32.9629 43.3242 33.3673 43.1252C34.5696 42.534 35.5583 42.1243 36.5662 41.2303C39.0643 39.0147 39.1265 36.7032 39.1288 33.6257C39.1302 31.7477 39.0899 29.803 39.1761 27.9405C39.2486 25.9385 39.7719 24.0844 41.3303 22.7031C41.7213 22.3564 42.2655 22.0466 42.5938 21.7463L42.5857 18.903C41.3632 19.241 40.1326 19.108 39.6058 17.7891C39.0907 16.4993 39.1417 14.8752 39.1205 13.5067C39.0873 11.3675 39.2036 9.21011 39.0799 7.07069C38.9964 5.67774 38.9578 3.22669 37.2379 2.82832Z" fill="var(--fill-0, #DBEAFE)"/>
<path d="M34.902 19.8979C34.5287 20.2266 34.1785 20.7209 33.8882 21.1193C31.7891 24.0003 31.8629 27.8436 31.8828 31.2367C31.8904 32.5407 32.0179 33.9077 31.6765 35.1877C31.2146 36.9192 29.5339 37.4039 28.0324 38.2108C28.99 38.7188 30.0055 39.4071 30.9586 39.9393C31.1121 40.0252 31.8386 40.4809 31.9595 40.5063C33.3443 39.739 35.1081 39.3112 35.5298 37.5951C35.7394 36.7426 35.7144 35.8815 35.7057 35.0108C35.6649 30.8964 35.3526 26.2386 38.1602 22.8384C38.4146 22.5302 38.6534 22.2058 38.9407 21.9228C38.6935 21.875 38.3514 21.8114 38.1277 21.7143C37.0202 21.2338 35.9562 20.4847 34.902 19.8979Z" fill="var(--fill-0, #DBEAFE)"/>
<path d="M35.0194 7.12478C34.1819 7.08312 32.8249 8.04544 32.0648 8.49688C32.0757 10.3851 31.9256 12.25 32.0701 14.1521C32.1657 15.4102 32.2607 17.1016 33.0821 18.1577C33.4108 18.5803 34.2167 19.0377 34.7013 19.3088C35.3284 19.6966 35.9626 20.0732 36.6036 20.4384C35.9025 18.9725 35.7956 17.6353 35.7245 16.0276C35.6717 14.9485 35.6541 13.8681 35.6718 12.788C35.6863 11.9012 35.7483 11.0223 35.7334 10.1198C35.7205 9.34163 35.7432 8.28322 35.4752 7.53138C35.3982 7.31518 35.2247 7.20302 35.0194 7.12478Z" fill="var(--fill-0, #DBEAFE)"/>
<path d="M32.9618 0.384105C31.9718 0.281086 30.7597 1.01165 29.9161 1.48257C29.2998 1.83105 28.6798 2.17339 28.0564 2.50958L31.8365 4.70982C31.929 4.75194 31.9725 4.69657 32.055 4.64992C33.3703 3.90703 35.2677 2.57947 36.7446 2.41392L34.7761 1.24223C34.2035 0.898622 33.6335 0.46546 32.9618 0.384105Z" fill="var(--fill-0, #DBEAFE)"/>
<path d="M27.898 2.88048L27.8797 2.88396C27.8136 2.97627 27.8529 5.45077 27.8533 5.78448C29.1068 6.45881 30.4007 7.26399 31.6462 7.96932L31.6922 7.93774C31.7107 7.68296 31.6954 7.21842 31.6943 6.9477L31.6861 5.078C30.4704 4.33466 29.1376 3.61353 27.898 2.88048Z" fill="var(--fill-0, #DBEAFE)"/>
<path d="M27.8565 38.5524L27.8418 38.5663C27.7867 38.7212 27.8186 41.0478 27.8183 41.4046C29.1294 42.1395 30.3999 42.9343 31.6961 43.694C31.7459 43.618 31.7223 41.1937 31.7221 40.8636L27.8565 38.5524Z" fill="var(--fill-0, #DBEAFE)"/>
<path d="M39.8596 17.1297L39.826 17.1682C39.8885 17.7035 40.4643 18.4557 41.0143 18.6213C41.3442 18.7207 41.7955 18.6633 42.1299 18.6029L42.209 18.5712C42.1564 18.4609 40.1209 17.2866 39.8596 17.1297Z" fill="var(--fill-0, #DBEAFE)"/>
<path d="M11.2984 8.56671C11.0135 8.59454 10.1147 9.13953 9.81962 9.29982C8.94088 9.77679 8.01501 10.2311 7.1914 10.7943C5.55527 11.9134 4.31616 13.5543 3.86246 15.4754C3.63762 16.4966 3.60004 17.5379 3.54491 18.5772C3.40661 21.1932 3.68936 23.9143 3.30959 26.5079C3.13033 27.7335 2.35261 29.0569 1.36699 29.7902C0.945639 30.104 0.483937 30.3754 0.0425629 30.6782C-0.0153424 31.11 0.00221339 31.775 0.00344542 32.2339C0.00467745 32.8 -0.0138024 33.4805 0.0425629 34.032C0.17285 34.1343 0.572332 34.3624 0.729108 34.4571C1.29646 34.7947 1.86565 35.1294 2.43639 35.4613C2.65816 35.5914 2.99111 35.7711 3.179 35.9287C3.47684 36.9135 3.51565 38.9019 3.51565 39.9575C3.51627 40.9516 3.51072 41.9458 3.49902 42.9397C3.48485 43.9959 3.4639 45.1099 3.54214 46.1619C3.61421 47.1352 3.79994 48.3723 4.59922 49.0273C4.89275 49.2675 5.31318 49.5102 5.64459 49.7117L7.21573 50.6566C7.43011 50.7848 7.6605 50.9201 7.87302 51.0502C8.94396 51.7058 9.35392 52.0888 10.6679 51.9823C11.0125 51.9212 11.3504 51.8289 11.6772 51.7061C12.1109 51.5433 14.4376 50.4726 14.6661 50.23C14.7268 50.1655 14.7357 50.076 14.745 49.9925C14.7927 49.5622 14.7591 49.0993 14.7585 48.6661C14.7579 48.0183 14.7798 47.3615 14.7403 46.7149C14.5731 46.5506 13.8209 46.1231 13.5594 45.9673L11.3061 44.6291C11.2981 43.5221 11.3757 42.3509 11.388 41.2291C11.3895 40.2848 11.348 39.3409 11.2636 38.4002C11.125 36.8388 10.889 34.9914 9.53287 33.9618C9.1953 33.7059 8.76316 33.4798 8.3994 33.2414C10.3944 31.0268 11.1327 29.2354 11.445 26.2912C11.6064 24.7688 11.6338 23.4168 11.6039 21.8752C11.579 20.5983 11.5004 19.2307 11.6911 17.9685C11.9273 16.4012 13.1424 15.8182 14.4339 15.1704C14.7681 15.0028 15.1709 14.817 15.4802 14.6021L15.5178 14.5757C15.5473 14.086 15.5867 11.4431 15.4937 11.0886C15.4731 11.01 15.4019 10.9678 15.336 10.9228C14.8974 10.623 14.3991 10.3738 13.9383 10.1068L11.2984 8.56671Z" fill="#3B82F6"/>
<path d="M15.1485 11.4548C14.7702 11.6288 14.3615 11.8891 13.9882 12.0822C13.4578 12.3565 12.9243 12.6339 12.4093 12.9318C10.3648 14.1145 8.86788 15.9042 8.44191 18.2329C8.29838 19.0166 8.29776 19.6784 8.24817 20.4611C8.10033 22.7957 8.31255 25.1428 8.09294 27.4691C8.03503 28.0817 7.9645 28.9467 7.79325 29.5385C7.27364 31.3348 6.31789 32.4566 4.73074 33.39L4.73351 36.2494C6.1682 35.8458 7.20865 36.4887 7.6491 37.8596C7.85885 38.5252 7.91583 39.2501 7.97282 39.9408C8.19704 42.6553 7.86748 45.4037 7.99099 48.1142C8.04242 49.2446 8.20321 50.9933 9.40566 51.4952C10.2117 51.8317 11.0809 51.534 11.8519 51.2393C12.4774 50.99 13.7335 50.3171 14.3766 49.9988L14.3827 47.0883C13.7116 47.4196 12.6881 48.0655 11.9205 47.8791C11.4662 47.7687 11.2207 47.392 11.1006 46.9742C10.8305 46.0333 10.9127 44.5986 10.9417 43.6089C11.0095 41.3144 11.2291 37.0575 10.0278 35.0837C9.67086 34.4973 9.18975 34.0792 8.51829 33.8865C8.33719 33.8344 8.14869 33.8117 7.96604 33.7655C7.8413 33.7337 7.71347 33.7013 7.64355 33.5863C7.65464 33.5131 7.69161 33.4372 7.74304 33.3845C8.35813 32.7583 8.85833 32.1556 9.35638 31.4322C11.1973 28.7564 11.2195 25.3306 11.2146 22.2177C11.2121 20.6051 11.0048 18.9272 11.4527 17.3495C11.8928 15.8105 13.8256 15.0625 15.1525 14.3819C15.1629 13.417 15.15 12.4217 15.1485 11.4548Z" fill="var(--fill-0, #DBEAFE)"/>
<path d="M11.2389 8.96241C11.1012 8.99917 9.91172 9.67876 9.70443 9.79189C9.12445 10.1081 8.44684 10.4396 7.88965 10.7769C6.07025 11.8786 4.6408 13.6362 4.20897 15.7192C3.97766 16.7363 3.98474 17.7181 3.92222 18.7532C3.75928 21.4478 4.13413 24.2609 3.61821 26.9166C3.4676 27.6933 3.04039 28.5077 2.56976 29.1346C2.05107 29.8253 1.35436 30.3046 0.619768 30.7496C1.79759 31.4573 3.23998 32.2548 4.37591 32.9924L4.48525 33.0514C4.71472 33.0169 4.88751 32.81 5.07016 32.6929C5.99356 32.1002 6.65516 31.2679 7.09315 30.2825C7.54438 29.2671 7.63247 28.2282 7.70023 27.1369C7.86902 24.8823 7.68545 22.616 7.8299 20.3585C7.88503 19.4967 7.94509 18.4502 8.15731 17.6143C8.68739 15.5267 10.1264 13.8424 11.9735 12.7308C12.9317 12.1542 13.9463 11.6831 14.9104 11.1085C13.6944 10.4343 12.4374 9.67208 11.2389 8.96241Z" fill="var(--fill-0, #DBEAFE)"/>
<path d="M3.70292 36.2548C3.64193 36.3126 3.72971 36.6451 3.74542 36.7465C3.83074 37.3346 3.87879 37.9273 3.88895 38.5213C3.93546 40.2346 3.89172 41.9086 3.88033 43.6189C3.88556 44.7384 3.84367 45.8711 4.02879 46.9806C4.16339 47.7887 4.45415 48.5175 5.17765 48.9777C6.07395 49.548 6.99982 50.0669 7.89396 50.6399C7.95803 50.6811 7.98575 50.7007 8.05721 50.6883L8.04243 50.6278C7.51019 49.3973 7.54592 47.8797 7.56255 46.5682C7.59089 44.3066 7.89828 40.0388 7.25146 38.0163C7.08514 37.4968 6.81933 36.967 6.30342 36.7087C5.73114 36.4222 5.08925 36.5444 4.5062 36.7238C4.20281 36.5755 3.98967 36.4352 3.70292 36.2548Z" fill="var(--fill-0, #DBEAFE)"/>
<path d="M0.442356 31.1112C0.385991 31.1998 0.411247 33.5449 0.411555 33.8423C1.71134 34.5603 2.99111 35.3899 4.28659 36.1232L4.30476 36.1075C4.33033 35.9583 4.31801 35.4268 4.3177 35.2537L4.31338 33.4084L0.442356 31.1112Z" fill="var(--fill-0, #DBEAFE)"/>
<path d="M11.3828 45.1169C11.3674 45.1271 11.3446 45.1353 11.343 45.1571C11.3005 45.78 11.3538 46.5131 11.5882 47.0928C11.923 47.9206 13.0044 47.3119 13.5702 47.0432C13.7584 46.9533 13.9457 46.8614 14.1317 46.7676C13.3968 46.2672 12.175 45.5849 11.3828 45.1169Z" fill="var(--fill-0, #DBEAFE)"/>
</g>
</svg>
