<svg preserveAspectRatio="none" width="100%" height="100%" overflow="visible" style="display: block;" viewBox="0 0 40 52" fill="none" xmlns="http://www.w3.org/2000/svg">
<g id="Vector">
<path d="M32.352 0.0303946C29.3496 -0.337295 26.092 2.70809 24.5815 4.99586C23.0818 7.26719 22.0531 9.97537 22.291 12.7343C22.3431 13.3386 22.4983 13.8195 22.6112 14.3995C21.8711 15.3641 21.1221 16.3218 20.3643 17.2725C19.82 17.961 19.2456 18.7167 18.6788 19.3796C18.083 18.9475 17.095 18.362 16.4577 17.9641L13.0665 15.8197C11.5819 14.8638 10.0831 13.9302 8.57048 13.0192C7.95549 12.6458 7.32827 12.1903 6.67811 11.8838C6.28341 11.6977 5.9397 11.6171 5.50238 11.6531C4.4456 11.7399 1.96029 12.8789 1.32592 13.6474C1.13662 13.8767 0.983097 14.1391 0.812281 14.3824C0.59854 14.687 0.338594 14.9951 0.167482 15.3243C0.126936 15.4022 0.0789443 15.5054 0.0932511 15.5954C0.119782 15.7626 2.19102 17.7489 2.47303 17.9727C3.07401 18.4494 3.72388 18.8756 4.3493 19.3202L7.40548 21.5065L10.8334 23.9422C11.9385 24.7369 13.102 25.5955 14.2294 26.3533C13.9373 26.7511 13.6466 27.227 13.3709 27.6435C12.8274 28.4533 12.2911 29.2676 11.762 30.0869L3.50566 42.6001C2.84268 43.5946 2.18536 44.5926 1.534 45.5942C1.14944 46.174 0.738355 46.744 0.377346 47.338C0.217264 47.6013 0.0804342 47.8637 0.0297545 48.1704C-0.00810378 48.3995 -0.0343344 48.8 0.110246 48.993C0.230382 49.1539 4.21277 51.581 4.55202 51.7484C4.78752 51.8645 5.08354 51.9286 5.34259 51.9651C6.90884 52.1845 8.76603 51.3334 9.99423 50.4203C10.8072 49.8357 11.4263 48.7032 11.9817 47.8539L14.2345 44.4201L20.321 35.1775C20.7981 34.4466 21.3021 33.654 21.8115 32.9492C21.6952 33.3004 21.6088 33.6605 21.5534 34.0262C21.2798 35.7917 21.3899 37.8332 22.4696 39.3367C22.9616 40.0219 23.4227 40.2671 24.1149 40.694L25.6817 41.6588L27.5546 42.8239C27.8799 43.0219 28.2095 43.233 28.5497 43.4019C30.5025 44.3709 32.838 43.5613 34.4717 42.316C37.3168 40.1472 39.399 36.6508 39.8982 33.1125C40.1426 31.3809 39.9751 29.3014 38.8883 27.8655C38.6344 27.5277 38.3346 27.2267 37.9973 26.9711C37.6308 26.6941 36.7956 26.2177 36.3658 25.9493L34.6366 24.8898C34.1973 24.6218 33.6955 24.2946 33.2287 24.0886C31.2543 23.2166 28.6998 24.2741 27.1193 25.4767C26.9898 25.3606 26.8665 25.2383 26.7422 25.1169C26.7258 24.9492 26.7226 24.8097 26.7195 24.6413C27.816 22.8958 28.8896 21.1361 29.9401 19.3627C31.7206 19.5675 33.6393 18.6117 34.9872 17.5097C37.5476 15.4164 39.5423 11.9815 39.934 8.69137C40.1224 7.10935 39.9446 5.1602 38.9117 3.88745C38.6699 3.59012 38.3909 3.32481 38.0814 3.09804C37.565 2.71774 36.9302 2.396 36.3854 2.04675C35.7311 1.62735 35.0257 1.23819 34.3689 0.823809C33.6473 0.368457 33.2039 0.122035 32.352 0.0303946ZM29.3859 36.6864C29.425 36.3892 29.4558 36.0823 29.5162 35.7887C29.5931 35.4149 29.7609 35.0617 29.8809 34.7075C30.3838 33.2241 31.3413 32.0361 32.5819 31.0689C32.305 33.3227 31.2822 35.3707 29.3859 36.6864ZM29.7434 12.2375C29.8191 11.5472 30.2764 10.2231 30.6085 9.61377C30.9179 9.0459 32.0549 7.62481 32.6405 7.35114C32.1953 9.18427 31.7108 10.5009 30.2397 11.8215C30.1539 11.8985 29.8203 12.1873 29.7434 12.2375Z" fill="#3B82F6"/>
<path d="M10.1427 14.6967C8.99586 14.7353 7.19501 15.6546 6.27297 16.3302C6.12063 16.4418 5.20217 17.8569 5.02569 18.1198C5.59508 18.4838 6.2676 18.9739 6.83132 19.3645L10.0941 21.6273L12.3761 23.2147C12.8024 23.5094 13.3348 23.857 13.7336 24.1663C14.0854 24.4391 14.5112 24.8363 14.8596 25.1376C16.1295 26.2372 17.3775 27.3774 18.6541 28.469C19.0993 28.8495 19.7676 29.2835 20.2606 29.6258L22.5475 31.2253C22.8536 31.0362 23.1827 30.7797 23.4975 30.6182C23.6403 30.7248 23.87 30.9477 24.0101 31.0721C24.3724 31.3912 24.7329 31.7121 25.0917 32.0351C25.7279 32.6075 26.5809 33.3268 27.1646 33.9211C27.1107 34.1449 26.9796 34.475 26.9038 34.7048C26.7459 35.1809 26.6133 35.6651 26.5065 36.1552C25.3864 41.4447 28.7091 45.7049 34.0379 42.2076C36.7372 40.2412 38.6723 37.1738 39.4063 33.9139C39.7795 32.0868 39.8123 29.9176 38.7554 28.3006C36.9082 25.4748 33.4081 26.7193 31.2779 28.4289C31.064 28.6005 30.8382 28.8068 30.6104 28.9543C30.336 28.7664 30.0261 28.4752 29.773 28.2505C28.7147 27.3106 27.6238 26.4043 26.5815 25.4475C26.4906 25.3641 26.4207 25.2688 26.3576 25.1637C26.3527 24.9966 26.3349 24.8319 26.3192 24.6653C25.7415 24.2274 24.8279 23.7061 24.1986 23.3043L13.7921 16.7029L12.0339 15.591C11.4114 15.1942 10.9016 14.7514 10.1427 14.6967ZM29.3859 36.6864C29.425 36.3892 29.4558 36.0823 29.5162 35.7887C29.5931 35.4149 29.7609 35.0617 29.8809 34.7075C30.3838 33.2241 31.3413 32.0361 32.5819 31.0689C32.305 33.3227 31.2822 35.3707 29.3859 36.6864Z" fill="var(--fill-0, #DBEAFE)"/>
<path d="M34.7963 30.0429C33.9524 29.9358 32.9563 30.3796 32.2732 30.875C30.6676 32.063 29.4804 33.9796 29.1268 35.94C28.8247 37.6149 29.1317 39.7502 31.1392 40.0566C32.0306 40.1575 33.0676 39.6368 33.7498 39.1025C35.4208 37.7808 36.628 35.7117 36.8735 33.5942C37.0547 32.0307 36.611 30.2525 34.7963 30.0429ZM29.3859 36.6864C29.425 36.3892 29.4558 36.0823 29.5162 35.7887C29.5931 35.4149 29.7609 35.0617 29.8809 34.7075C30.3838 33.2241 31.3413 32.0361 32.5819 31.0689C32.305 33.3227 31.2822 35.3707 29.3859 36.6864Z" fill="#3B82F6"/>
<path d="M34.6409 30.3709C34.0192 30.3401 33.4667 30.5853 32.932 30.8619C32.9165 31.3152 32.9041 31.6578 32.8083 32.1067C32.3679 34.1476 31.1404 35.935 29.3899 37.0838C29.403 38.3891 29.8456 39.5611 31.2911 39.7C32.0963 39.76 33.016 39.2627 33.6266 38.7613C34.9106 37.6992 35.8585 36.2193 36.3187 34.6237C36.7686 33.064 36.7518 30.5663 34.6409 30.3709Z" fill="var(--fill-0, #DBEAFE)"/>
<path d="M22.4987 24.3973C21.1925 24.3094 19.9528 26.489 20.5194 27.6339C20.7476 28.0953 21.758 28.6008 22.2418 28.7715C23.9715 28.7489 25.3882 25.7242 23.5688 24.8883C23.1599 24.7004 22.9762 24.4896 22.4987 24.3973Z" fill="#3B82F6"/>
<path d="M23.575 25.3117C22.2155 25.2645 21.0382 27.9145 22.2352 28.4201C22.376 28.4278 22.517 28.4088 22.6507 28.364C23.7362 27.9893 24.6849 25.8282 23.575 25.3117Z" fill="var(--fill-0, #DBEAFE)"/>
<path d="M22.5447 24.7494C21.9171 24.6986 21.4677 25.1688 21.1393 25.6497C20.8331 26.0983 20.6701 26.7327 20.7719 27.2712C20.8445 27.6553 21.0559 27.7331 21.3569 27.9201L21.407 27.9397C21.436 27.8949 21.3947 27.5247 21.4102 27.3935C21.5333 26.3497 22.1061 25.4399 23.1052 25.0166C22.8907 24.8966 22.7804 24.8331 22.5447 24.7494Z" fill="var(--fill-0, #DBEAFE)"/>
<path d="M36.1979 2.82166C35.8247 2.76742 35.225 2.83893 34.8553 2.92265C32.2309 3.51678 29.9909 5.73479 28.5942 7.93371C27.2912 9.98509 26.3549 12.6298 26.6003 15.0912C26.6793 15.8847 26.8791 16.2742 27.0362 16.9859C26.8313 17.3182 26.2555 18.0356 25.9905 18.3893L24.4193 20.4915C24.0015 21.0457 23.5321 21.649 23.1445 22.2208C23.7262 22.5479 24.3095 22.9567 24.8756 23.313C25.3492 23.611 25.835 23.9058 26.2995 24.2153L26.4925 24.3878L28.6338 20.8547C28.8125 20.5577 29.6215 19.1802 29.8122 18.9749C29.8602 18.9834 29.9084 18.9903 29.9569 18.9957C31.6252 19.1854 33.2946 18.3991 34.5737 17.3985C37.2609 15.2619 39.205 11.9337 39.5961 8.52081C39.8782 6.0594 39.102 3.12312 36.1979 2.82166ZM29.7434 12.2375C29.8191 11.5472 30.2764 10.2231 30.6085 9.61377C30.9179 9.0459 32.0549 7.62481 32.6405 7.35114C32.1953 9.18427 31.7108 10.5009 30.2397 11.8215C30.1539 11.8985 29.8203 12.1873 29.7434 12.2375Z" fill="var(--fill-0, #DBEAFE)"/>
<path d="M34.9002 6.32176C34.0747 6.22385 33.3281 6.49732 32.6314 6.92491C31.154 7.83155 29.9828 9.60303 29.5576 11.2594C29.3025 12.2531 29.2647 13.6034 29.817 14.4816C30.1657 15.036 30.5858 15.2775 31.2088 15.4213C32.0755 15.5652 33.03 15.183 33.7286 14.691C35.2784 13.588 36.3898 11.8119 36.7147 9.94605C36.9689 8.4863 36.6473 6.59273 34.9002 6.32176ZM29.7434 12.2375C29.8191 11.5472 30.2764 10.2231 30.6085 9.61377C30.9179 9.0459 32.0549 7.62481 32.6405 7.35114C32.1953 9.18427 31.7108 10.5009 30.2397 11.8215C30.1539 11.8985 29.8203 12.1873 29.7434 12.2375Z" fill="#3B82F6"/>
<path d="M34.8621 6.67405C34.1204 6.61133 33.6329 6.76204 32.9762 7.1134C32.9692 7.55026 32.9026 7.98412 32.778 8.40305C32.394 9.71442 31.6784 10.9057 30.6996 11.8627C30.4019 12.159 30.0985 12.4373 29.7278 12.6413C29.7456 13.7329 30.0482 14.7591 31.2149 15.0611C31.9663 15.2031 32.712 14.9272 33.3414 14.5277C34.8634 13.5617 35.9466 11.8235 36.3357 10.0869C36.5185 9.27068 36.4961 8.14558 36.0214 7.43256C35.7256 6.98813 35.373 6.78054 34.8621 6.67405Z" fill="var(--fill-0, #DBEAFE)"/>
<path d="M14.5076 26.5643C14.4034 26.6789 14.197 27.0218 14.104 27.1667C13.9012 27.4834 13.6956 27.7984 13.4869 28.1113L0.643301 47.5769C1.25471 47.9773 1.88938 48.3511 2.51451 48.7314C3.19001 49.1422 3.85539 49.573 4.53179 49.9808C4.65759 49.8867 6.54728 46.9101 6.78874 46.5397L17.217 30.5461C17.5802 29.9936 18.0208 29.245 18.4013 28.7373C17.9652 28.5266 17.5545 28.2701 17.1313 28.0365C16.2568 27.5535 15.3919 27.0271 14.5076 26.5643Z" fill="var(--fill-0, #DBEAFE)"/>
<path d="M18.7007 28.9552C18.6245 28.9929 16.534 32.2218 16.3319 32.5309L6.42172 47.7467L5.44215 49.2689C4.98217 49.9713 4.43813 50.5068 4.59881 51.4016C5.66215 51.9042 6.63427 51.5948 7.66631 51.2721C8.3913 51.0448 9.83265 50.2649 10.3272 49.6902C10.662 49.3013 11.3515 48.1899 11.6705 47.7021L14.3497 43.6177L19.7168 35.4718C20.5483 34.2049 21.5446 32.7719 22.3113 31.4862C21.1356 30.6568 19.8424 29.8122 18.7007 28.9552Z" fill="var(--fill-0, #DBEAFE)"/>
<path d="M32.0679 0.358476C28.7788 0.296106 25.6483 3.66358 24.2002 6.3137C22.8264 8.82791 22.1609 11.5191 22.9759 14.3178C23.5595 14.7214 24.2473 15.1032 24.8542 15.4804C25.4142 15.8283 25.9628 16.1757 26.5291 16.5145C26.4604 16.3213 26.409 16.1181 26.3551 15.9199C26.1949 14.9952 26.1671 14.0524 26.2727 13.1199C26.3312 12.5847 26.4359 12.1731 26.573 11.6482C27.3367 8.78436 28.9866 6.23278 31.2886 4.35541C32.6787 3.24246 34.5498 2.28559 36.3841 2.48253C35.8062 2.11959 35.2261 1.76003 34.6439 1.40386C33.7272 0.839476 33.1907 0.424052 32.0679 0.358476Z" fill="var(--fill-0, #DBEAFE)"/>
<path d="M22.4412 32.0749L22.3987 32.0897C21.6374 34.2883 21.2982 37.6627 23.1043 39.5367C23.743 40.1993 24.9559 40.7497 25.7312 41.2861C26.0386 41.4987 26.7139 41.9273 27.0449 42.0912L27.0412 42.0502C26.485 41.33 26.2212 40.4727 26.059 39.5925C25.704 37.6659 26.1361 35.8533 26.7668 34.038C26.331 33.8828 25.3301 33.3983 24.888 33.1896C24.1069 32.8206 23.2009 32.4522 22.4412 32.0749Z" fill="var(--fill-0, #DBEAFE)"/>
<path d="M22.8661 14.6807C22.4935 15.0883 21.958 15.8327 21.5997 16.2855L18.9854 19.5735L22.7717 21.9908C22.7807 21.9985 22.8149 22.0068 22.8286 22.011C22.9467 21.9011 23.0824 21.6888 23.1837 21.5526L26.6127 16.9713C26.1563 16.7248 25.6938 16.4248 25.2518 16.1475C24.472 15.6583 23.6366 15.1755 22.8661 14.6807Z" fill="var(--fill-0, #DBEAFE)"/>
<path d="M31.9326 24.1358C31.926 24.1346 31.9195 24.1331 31.913 24.1319C30.3421 23.985 28.572 24.8637 27.3921 25.7231C27.6784 25.9226 28.3106 26.5059 28.5947 26.7552C29.2541 27.3338 29.9721 27.9308 30.6116 28.5266C30.7599 28.3886 30.9773 28.2324 31.1423 28.1066C32.8445 26.8247 34.1469 26.247 36.2632 26.2933C35.5279 25.9232 34.7355 25.3472 34.0117 24.9227C33.1804 24.435 32.9266 24.2527 31.9326 24.1358Z" fill="var(--fill-0, #DBEAFE)"/>
<path d="M5.87887 11.9911C4.77052 11.8896 2.85459 12.98 1.93195 13.5461C2.36152 13.8163 2.91928 14.1156 3.36912 14.374L6.11348 15.9463C6.22766 15.9266 6.76722 15.5737 6.90882 15.5022C7.90271 15.0006 8.96665 14.4072 10.0941 14.3507C9.82191 14.213 9.44302 13.9676 9.17174 13.8029C8.62114 13.4734 8.07412 13.138 7.53067 12.797C7.02807 12.4832 6.46495 12.0795 5.87887 11.9911Z" fill="var(--fill-0, #DBEAFE)"/>
<path d="M1.4046 16.4079L1.38433 16.4301C2.63936 17.7986 3.86994 18.535 5.36672 19.6067C6.16326 20.1769 6.95712 20.7496 7.75634 21.3171L12.1239 24.4379C12.4047 24.6401 12.7189 24.8491 12.9884 25.0613C14.292 26.0867 15.6834 26.8238 17.1294 27.6268L17.1542 27.6027C16.5286 27.0289 15.8127 26.4866 15.2033 25.9006C14.038 24.7802 12.8587 23.9696 11.536 23.0588L6.29204 19.4222C6.08277 19.2756 5.86784 19.1303 5.66095 18.9808C4.31441 18.008 2.82358 17.2729 1.4046 16.4079Z" fill="var(--fill-0, #DBEAFE)"/>
<path d="M1.65595 13.7948C1.61868 13.8085 0.571735 15.3732 0.491247 15.4977C1.38705 16.0273 2.28942 16.5457 3.19834 17.0526C3.6777 17.3237 4.25543 17.6284 4.70527 17.922C4.84747 17.8071 5.72151 16.4469 5.87414 16.2122L1.65595 13.7948Z" fill="var(--fill-0, #DBEAFE)"/>
<path d="M0.485868 47.899C0.325189 48.1127 0.343074 48.547 0.357979 48.7958C1.62314 49.5207 2.95388 50.3691 4.20175 51.1374C4.21457 50.7681 4.24408 50.6354 4.36184 50.2839C4.0679 50.0705 3.48719 49.7365 3.16285 49.5367L0.485868 47.899Z" fill="var(--fill-0, #DBEAFE)"/>
<path d="M23.441 31.0421C23.1036 31.2541 22.7667 31.4162 22.5593 31.7493C23.3606 32.1539 24.4505 32.6102 25.2855 32.9907C25.5372 33.0997 25.7851 33.2169 26.0289 33.3425C25.6391 32.9827 25.2391 32.6348 24.8412 32.2836C24.3843 31.8802 23.9117 31.4239 23.441 31.0421Z" fill="var(--fill-0, #DBEAFE)"/>
</g>
</svg>
