<svg width="78" height="65" viewBox="0 0 78 65" fill="none" xmlns="http://www.w3.org/2000/svg" style="display:block">
  <defs>
    <clipPath id="split-clip">
      <rect x="0.732" y="0.732" width="55.639" height="51.247"/>
    </clipPath>
  </defs>
  <rect x="0" y="0" width="57.103" height="52.711" fill="#ffffff"/>
  <g clip-path="url(#split-clip)">
    <rect x="0.732" y="0" width="55.639" height="13.91" fill="#EFF6FF"/>
    <circle cx="6.588" cy="6.586" r="2.196" fill="#DBEAFE"/>
    <circle cx="13.909" cy="6.586" r="2.196" fill="#DBEAFE"/>
    <circle cx="21.230" cy="6.586" r="2.196" fill="#DBEAFE"/>
  </g>
  <rect x="0.366" y="0.366" width="56.371" height="51.979" fill="none" stroke="#2563EB" stroke-width="0.732"/>
  <rect x="3.66" y="21.23" width="21.963" height="5.125" fill="#2563EB"/>
  <rect x="3.66" y="30.748" width="43.194" height="5.125" fill="#EFF6FF"/>
  <rect x="3.66" y="38.801" width="43.194" height="5.125" fill="#EFF6FF"/>
  <rect x="37.07" y="24" width="40.424" height="40.424" fill="#2563EB"/>
  <svg x="49.356" y="35.865" width="15.8528" height="16.6949" viewBox="0 0 15.8528 16.6949" overflow="visible">
    <path d="M5.07992 5.07992L8.34756 8.34756M15.085 1.61007L5.07992 11.6151M10.7056 10.7056L15.0849 15.0849M5.82094 3.29442C5.82094 4.68978 4.68978 5.82094 3.29442 5.82094C1.89906 5.82094 0.767892 4.68978 0.767892 3.29442C0.767892 1.89906 1.89906 0.767892 3.29442 0.767892C4.68978 0.767892 5.82094 1.89906 5.82094 3.29442ZM5.82094 13.4005C5.82094 14.7959 4.68978 15.927 3.29442 15.927C1.89906 15.927 0.767892 14.7959 0.767892 13.4005C0.767892 12.0051 1.89906 10.874 3.29442 10.874C4.68978 10.874 5.82094 12.0051 5.82094 13.4005Z" stroke="white" stroke-width="1.53578" stroke-linecap="round" stroke-linejoin="round" fill="none"/>
  </svg>
</svg>
